# Blender 3.3.1
# www.blender.org
mtllib monitor.mtl
o Cube
v 0.255195 1.709101 -2.816298
v 0.255195 -1.709101 -2.816298
v 0.255195 1.709101 2.816298
v 0.255195 -1.709101 2.816298
v -0.581819 1.362386 -2.244973
v -0.581819 -1.362386 -2.244973
v -0.581819 1.362386 2.244973
v -0.581819 -1.362386 2.244973
v 0.255195 1.883443 -3.103583
v 0.255195 -1.883443 -3.103583
v 0.255195 1.883443 3.103583
v 0.255195 -1.883443 3.103583
v 0.165738 1.709101 -2.816298
v 0.165738 -1.709101 -2.816298
v 0.165738 1.709101 2.816298
v 0.165738 -1.709101 2.816298
v -0.255195 -1.883443 -3.103583
v -0.255195 -1.883443 3.103583
v -0.255195 1.883443 3.103583
v -0.255195 1.883443 -3.103583
vn -0.0000 1.0000 -0.0000
vn -0.0000 -0.0000 1.0000
vn -1.0000 -0.0000 -0.0000
vn -0.0000 -1.0000 -0.0000
vn -0.0000 -0.0000 -1.0000
vn 1.0000 -0.0000 -0.0000
vn -0.8473 -0.5311 -0.0000
vn -0.9347 -0.0000 0.3556
vn -0.9347 -0.0000 -0.3556
vn -0.8473 0.5311 -0.0000
vt 0.583257 0.776001
vt 0.972366 0.491281
vt 0.947806 0.270903
vt 0.583257 0.505098
vt 0.947806 0.000000
vt 0.312354 0.776001
vt 0.867977 0.762184
vt 0.972366 0.762184
vt 0.947806 0.270903
vt 0.312354 0.505098
vt 0.867977 0.491281
vt 0.597074 0.978130
vt 0.854316 0.000000
vt 0.339833 0.000000
vt 0.597074 0.762184
vt 0.041295 0.491281
vt 0.638370 0.000000
vt 0.813021 0.978130
vt 0.041295 0.491281
vt 0.555779 0.000000
vt 0.813021 0.762184
vt 0.257242 0.491281
vt 0.298537 0.491281
vt 0.895612 0.491281
vt 0.597074 0.789818
vt 0.000000 0.000000
vt 0.597075 0.491281
vt 0.597074 0.491281
vt 0.000000 0.982562
vt 0.298537 0.789818
vt 0.298537 0.982562
vt 0.298537 0.000000
vt 0.298537 0.491281
vt 0.867977 0.762184
vt 0.920172 0.491281
vt 0.895612 0.270903
vt 1.000000 0.000000
vt 0.867977 0.491281
vt 0.895612 0.000000
vt 0.597074 0.762184
vt 0.920172 0.762184
vt 1.000000 0.270903
vt 0.597074 0.491281
vt 0.920172 0.491281
vt 0.000000 0.297788
vt 0.597075 0.193492
vt 0.298537 0.297789
vt 0.298537 0.684773
vt 0.000000 0.684773
vt 0.597075 0.193492
vt 0.895612 0.193492
vt 0.298537 0.193492
s 0
usemtl Material
f 9/23/1 20/52/1 19/50/1 11/28/1
f 12/31/2 11/29/2 19/49/2 18/48/2
f 8/21/3 7/18/3 5/12/3 6/15/3
f 17/45/4 10/26/4 12/32/4 18/47/4
f 4/9/1 2/5/1 14/37/1 16/42/1
f 17/46/5 20/51/5 9/24/5 10/27/5
f 1/1/6 2/4/6 10/27/6 9/25/6
f 4/10/6 3/6/6 11/30/6 12/33/6
f 3/6/6 1/1/6 9/25/6 11/30/6
f 2/4/6 4/10/6 12/33/6 10/27/6
f 14/38/6 13/34/6 15/40/6 16/43/6
f 3/7/5 4/11/5 16/44/5 15/41/5
f 1/2/4 3/8/4 15/41/4 13/35/4
f 2/5/2 1/3/2 13/36/2 14/39/2
f 8/22/7 6/16/7 17/45/7 18/47/7
f 7/19/8 8/22/8 18/48/8 19/49/8
f 6/17/9 5/13/9 20/51/9 17/46/9
f 5/14/10 7/20/10 19/50/10 20/52/10
