# Blender 3.3.1
# www.blender.org
mtllib pictureframe.mtl
o Cube
v 0.125417 1.206548 -0.894700
v 0.125417 -1.206548 -0.894700
v 0.125417 1.206548 0.894700
v 0.125417 -1.206548 0.894700
v -0.125417 1.348550 -1.000000
v -0.125417 -1.348550 -1.000000
v -0.125417 1.348550 1.000000
v -0.125417 -1.348550 1.000000
v 0.125417 1.348550 -1.000000
v 0.125417 -1.348550 -1.000000
v 0.125417 1.348550 1.000000
v 0.125417 -1.348550 1.000000
v 0.049920 1.206548 -0.894700
v 0.049920 -1.206548 -0.894700
v 0.049920 1.206548 0.894700
v 0.049920 -1.206548 0.894700
vn -0.0000 1.0000 -0.0000
vn -0.0000 -0.0000 1.0000
vn -1.0000 -0.0000 -0.0000
vn -0.0000 -1.0000 -0.0000
vn -0.0000 -0.0000 -1.0000
vn 1.0000 -0.0000 -0.0000
vt 0.315783 0.982450
vt 0.867322 0.631567
vt 0.433661 0.964900
vt 0.315783 0.684217
vt 0.433661 0.666667
vt 0.017550 0.982450
vt 0.666667 0.929800
vt 0.867322 0.929800
vt 0.433661 0.964900
vt 0.017550 0.684217
vt 0.666667 0.631567
vt 0.333333 0.000000
vt 0.333333 0.333333
vt 1.000000 0.333333
vt 0.333333 0.000000
vt 0.333333 0.333333
vt 1.000000 0.000000
vt 0.333333 0.333333
vt 0.000000 0.666667
vt 0.666667 0.333333
vt 0.000000 0.333333
vt 0.666667 0.000000
vt 0.333333 0.666667
vt 0.000000 0.000000
vt 0.666667 0.333333
vt 0.333333 1.000000
vt 0.666667 0.333333
vt 0.666667 0.000000
vt 0.333333 0.666667
vt 0.000000 0.333333
vt 0.333333 0.666667
vt 0.000000 1.000000
vt 0.333333 0.333333
vt 0.666667 0.666667
vt 0.000000 0.666667
vt 0.964900 0.631567
vt 0.766994 0.631567
vt 0.333333 0.964900
vt 0.533989 0.666667
vt 0.964900 0.333333
vt 0.333333 0.666667
vt 0.666667 0.631567
vt 0.766994 0.929800
vt 0.533989 0.964900
vt 0.666667 0.333333
vt 0.766994 0.631567
s 0
usemtl Material
f 9/24/1 5/12/1 7/18/1 11/30/1
f 12/33/2 11/31/2 7/19/2 8/21/2
f 8/22/3 7/20/3 5/13/3 6/15/3
f 6/16/4 10/27/4 12/34/4 8/23/4
f 4/9/1 2/5/1 14/39/1 16/44/1
f 6/17/5 5/14/5 9/25/5 10/28/5
f 1/1/6 2/4/6 10/29/6 9/26/6
f 4/10/6 3/6/6 11/32/6 12/35/6
f 3/6/6 1/1/6 9/26/6 11/32/6
f 2/4/6 4/10/6 12/35/6 10/29/6
f 14/40/6 13/36/6 15/42/6 16/45/6
f 3/7/5 4/11/5 16/46/5 15/43/5
f 1/2/4 3/8/4 15/43/4 13/37/4
f 2/5/2 1/3/2 13/38/2 14/41/2
