# Blender 3.3.1
# www.blender.org
mtllib plants.mtl
o plant
v -0.069377 1.343696 0.671423
v -0.069377 3.413061 1.070072
v -0.069377 1.343696 0.474511
v -0.069377 3.342329 0.873160
v 0.142622 1.343696 0.671423
v 0.142622 3.413061 1.070072
v 0.142622 1.343696 0.474511
v 0.142622 3.342329 0.873160
v -0.069377 2.343012 0.671423
v -0.069377 2.343012 0.474511
v 0.142622 2.343012 0.474511
v 0.142622 2.343012 0.671423
v -0.069377 3.327603 1.035980
v -0.069377 3.256870 0.839069
v 0.142622 3.256870 0.839069
v 0.142622 3.327603 1.035980
v -0.069377 2.322738 2.429179
v -0.069377 2.408197 2.463271
v 0.142622 2.408197 2.463271
v 0.142622 2.322738 2.429179
v -0.300541 3.287724 1.181215
v -0.300541 3.373183 1.215306
v 0.376839 3.373183 1.215306
v 0.376839 3.287724 1.181215
v -0.444562 3.213944 1.416749
v 0.529323 3.299403 1.450840
v -0.444562 3.299403 1.450840
v 0.529323 3.213944 1.416749
v -0.234295 2.613035 2.286347
v 0.326325 2.698493 2.320438
v -0.234295 2.698493 2.320438
v 0.326325 2.613035 2.286347
vn -1.0000 -0.0000 -0.0000
vn -0.0000 0.3705 -0.9288
vn 1.0000 -0.0000 -0.0000
vn -0.8244 -0.2097 0.5257
vn -0.0000 -1.0000 -0.0000
vn -0.0000 0.9411 -0.3381
vn -0.0000 -0.0000 1.0000
vn -0.0000 -0.0000 -1.0000
vn -0.0000 -0.3472 0.9378
vn -0.0000 -0.3705 0.9288
vn 0.7944 -0.2251 0.5642
vn -0.0000 -0.4415 -0.8973
vn -0.0000 0.4415 0.8973
vn -0.0000 0.9643 0.2648
vn -0.0000 -0.9643 -0.2648
vn 0.5385 0.3122 -0.7827
vn -0.5435 0.3110 -0.7797
vn -0.0000 0.9543 0.2989
vn -0.0000 -0.9543 -0.2989
vn 0.8501 0.1952 -0.4892
vn -0.8631 0.1871 -0.4691
vn -0.0000 0.8227 0.5685
vn -0.0000 -0.8227 -0.5685
vn 0.9811 -0.0716 0.1795
vn -0.9798 -0.0741 0.1857
vt 0.125000 0.750000
vt 0.375000 1.000000
vt 0.375000 0.000000
vt 0.875000 0.750000
vt 0.625000 0.000000
vt 0.125000 0.500000
vt 0.375000 0.250000
vt 0.625000 0.250000
vt 0.875000 0.500000
vt 0.375000 0.750000
vt 0.625000 0.750000
vt 0.375000 0.500000
vt 0.625000 0.500000
vt 0.500000 1.000000
vt 0.500000 0.000000
vt 0.500000 0.250000
vt 0.500000 0.500000
vt 0.500000 0.750000
vt 0.614310 1.000000
vt 0.614310 0.000000
vt 0.614310 0.250000
vt 0.614310 0.500000
vt 0.614310 0.750000
vt 0.614310 0.000000
vt 0.614310 1.000000
vt 0.625000 0.000000
vt 0.625000 1.000000
vt 0.875000 0.750000
vt 0.625000 0.750000
vt 0.614310 0.750000
vt 0.614310 1.000000
vt 0.614310 0.000000
vt 0.875000 0.750000
vt 0.625000 0.000000
vt 0.625000 0.750000
vt 0.614310 0.750000
vt 0.614310 1.000000
vt 0.614310 0.000000
vt 0.625000 0.750000
vt 0.875000 0.750000
vt 0.625000 0.000000
vt 0.614310 0.750000
vt 0.614310 1.000000
vt 0.614310 0.000000
vt 0.625000 0.750000
vt 0.875000 0.750000
vt 0.625000 0.000000
vt 0.614310 0.750000
s 0
f 13/20/1 2/5/1 4/8/1 14/21/1
f 14/21/2 4/8/2 8/13/2 15/22/2
f 15/22/3 8/13/3 6/11/3 16/23/3
f 31/47/4 29/44/4 17/24/4 18/26/4
f 3/6/5 7/12/5 5/10/5 1/1/5
f 8/13/6 4/9/6 2/4/6 6/11/6
f 5/10/7 12/18/7 9/14/7 1/2/7
f 7/12/3 11/17/3 12/18/3 5/10/3
f 3/7/8 10/16/8 11/17/8 7/12/8
f 1/3/1 9/15/1 10/16/1 3/7/1
f 12/18/9 16/23/9 13/19/9 9/14/9
f 11/17/3 15/22/3 16/23/3 12/18/3
f 10/16/2 14/21/2 15/22/2 11/17/2
f 9/15/1 13/20/1 14/21/1 10/16/1
f 20/30/10 19/29/10 18/27/10 17/25/10
f 32/48/11 30/45/11 19/29/11 20/30/11
f 29/43/12 32/48/12 20/30/12 17/25/12
f 30/45/13 31/46/13 18/28/13 19/29/13
f 6/11/14 2/4/14 22/33/14 23/35/14
f 13/19/15 16/23/15 24/36/15 21/31/15
f 16/23/16 6/11/16 23/35/16 24/36/16
f 2/5/17 13/20/17 21/32/17 22/34/17
f 23/35/18 22/33/18 27/40/18 26/39/18
f 21/31/19 24/36/19 28/42/19 25/37/19
f 24/36/20 23/35/20 26/39/20 28/42/20
f 22/34/21 21/32/21 25/38/21 27/41/21
f 26/39/22 27/40/22 31/46/22 30/45/22
f 25/37/23 28/42/23 32/48/23 29/43/23
f 28/42/24 26/39/24 30/45/24 32/48/24
f 27/41/25 25/38/25 29/44/25 31/47/25
o plant.001
v 0.069353 2.090713 0.713886
v 0.415249 4.160078 0.912070
v -0.101501 2.090713 0.615993
v 0.244395 4.089345 0.814178
v 0.174746 2.090713 0.529941
v 0.520642 4.160078 0.728126
v 0.003892 2.090713 0.432048
v 0.349788 4.089345 0.630233
v 0.069353 3.090029 0.713886
v -0.101501 3.090029 0.615993
v 0.003892 3.090029 0.432048
v 0.174746 3.090029 0.529941
v 0.385669 4.074619 0.895122
v 0.214815 4.003886 0.797229
v 0.320208 4.003886 0.613285
v 0.491062 4.074619 0.711178
v 1.594505 3.069755 1.587738
v 1.624085 3.155213 1.604686
v 1.729478 3.155213 1.420742
v 1.699898 3.069755 1.403794
v 0.396763 4.034741 1.167898
v 0.426343 4.120200 1.184847
v 0.763096 4.120200 0.597105
v 0.733516 4.034741 0.580157
v 0.529530 3.960961 1.409954
v 1.043268 4.046420 0.581892
v 0.559110 4.046420 1.426902
v 1.013688 3.960961 0.564944
v 1.388586 3.360051 1.659825
v 1.696874 3.445510 1.190340
v 1.418166 3.445510 1.676773
v 1.667293 3.360051 1.173391
vn -0.4971 -0.0000 0.8677
vn -0.8059 0.3705 -0.4618
vn 0.4971 -0.0000 -0.8677
vn 0.0463 -0.2097 0.9767
vn -0.0000 -1.0000 -0.0000
vn -0.2933 0.9411 -0.1681
vn 0.8677 -0.0000 0.4971
vn -0.8677 -0.0000 -0.4971
vn 0.8137 -0.3472 0.4662
vn 0.8059 -0.3705 0.4618
vn 0.8845 -0.2251 -0.4087
vn -0.7785 -0.4415 -0.4461
vn 0.7785 0.4415 0.4461
vn 0.2297 0.9643 0.1316
vn -0.2297 -0.9643 -0.1316
vn -0.4114 0.3122 -0.8563
vn -0.9467 0.3110 0.0840
vn 0.2594 0.9543 0.1486
vn -0.2594 -0.9543 -0.1486
vn -0.0019 0.1952 -0.9808
vn -0.8361 0.1871 0.5156
vn 0.4933 0.8227 0.2826
vn -0.4933 -0.8227 -0.2826
vn 0.6435 -0.0716 -0.7620
vn -0.3260 -0.0741 0.9425
vt 0.125000 0.750000
vt 0.375000 1.000000
vt 0.375000 0.000000
vt 0.875000 0.750000
vt 0.625000 0.000000
vt 0.125000 0.500000
vt 0.375000 0.250000
vt 0.625000 0.250000
vt 0.875000 0.500000
vt 0.375000 0.750000
vt 0.625000 0.750000
vt 0.375000 0.500000
vt 0.625000 0.500000
vt 0.500000 1.000000
vt 0.500000 0.000000
vt 0.500000 0.250000
vt 0.500000 0.500000
vt 0.500000 0.750000
vt 0.614310 1.000000
vt 0.614310 0.000000
vt 0.614310 0.250000
vt 0.614310 0.500000
vt 0.614310 0.750000
vt 0.614310 0.000000
vt 0.614310 1.000000
vt 0.625000 0.000000
vt 0.625000 1.000000
vt 0.875000 0.750000
vt 0.625000 0.750000
vt 0.614310 0.750000
vt 0.614310 1.000000
vt 0.614310 0.000000
vt 0.875000 0.750000
vt 0.625000 0.000000
vt 0.625000 0.750000
vt 0.614310 0.750000
vt 0.614310 1.000000
vt 0.614310 0.000000
vt 0.625000 0.750000
vt 0.875000 0.750000
vt 0.625000 0.000000
vt 0.614310 0.750000
vt 0.614310 1.000000
vt 0.614310 0.000000
vt 0.625000 0.750000
vt 0.875000 0.750000
vt 0.625000 0.000000
vt 0.614310 0.750000
s 0
f 45/68/26 34/53/26 36/56/26 46/69/26
f 46/69/27 36/56/27 40/61/27 47/70/27
f 47/70/28 40/61/28 38/59/28 48/71/28
f 63/95/29 61/92/29 49/72/29 50/74/29
f 35/54/30 39/60/30 37/58/30 33/49/30
f 40/61/31 36/57/31 34/52/31 38/59/31
f 37/58/32 44/66/32 41/62/32 33/50/32
f 39/60/28 43/65/28 44/66/28 37/58/28
f 35/55/33 42/64/33 43/65/33 39/60/33
f 33/51/26 41/63/26 42/64/26 35/55/26
f 44/66/34 48/71/34 45/67/34 41/62/34
f 43/65/28 47/70/28 48/71/28 44/66/28
f 42/64/27 46/69/27 47/70/27 43/65/27
f 41/63/26 45/68/26 46/69/26 42/64/26
f 52/78/35 51/77/35 50/75/35 49/73/35
f 64/96/36 62/93/36 51/77/36 52/78/36
f 61/91/37 64/96/37 52/78/37 49/73/37
f 62/93/38 63/94/38 50/76/38 51/77/38
f 38/59/39 34/52/39 54/81/39 55/83/39
f 45/67/40 48/71/40 56/84/40 53/79/40
f 48/71/41 38/59/41 55/83/41 56/84/41
f 34/53/42 45/68/42 53/80/42 54/82/42
f 55/83/43 54/81/43 59/88/43 58/87/43
f 53/79/44 56/84/44 60/90/44 57/85/44
f 56/84/45 55/83/45 58/87/45 60/90/45
f 54/82/46 53/80/46 57/86/46 59/89/46
f 58/87/47 59/88/47 63/94/47 62/93/47
f 57/85/48 60/90/48 64/96/48 61/91/48
f 60/90/49 58/87/49 62/93/49 64/96/49
f 59/89/50 57/86/50 61/92/50 63/95/50
o plant.002
v 0.003142 1.343696 -0.183970
v -0.343805 3.413061 -0.380309
v 0.174515 1.343696 -0.086989
v -0.172432 3.342329 -0.283328
v -0.101270 1.343696 0.000534
v -0.448216 3.413061 -0.195806
v 0.070103 1.343696 0.097515
v -0.276843 3.342329 -0.098825
v 0.003142 2.343012 -0.183970
v 0.174515 2.343012 -0.086989
v 0.070103 2.343012 0.097515
v -0.101270 2.343012 0.000534
v -0.314135 3.327603 -0.363519
v -0.142762 3.256870 -0.266537
v -0.247173 3.256870 -0.082034
v -0.418547 3.327603 -0.179015
v -1.526644 2.322738 -1.049685
v -1.556314 2.408197 -1.066476
v -1.660726 2.408197 -0.881972
v -1.631056 2.322738 -0.865182
v -0.326682 3.287724 -0.636232
v -0.356352 3.373183 -0.653022
v -0.689970 3.373183 -0.063495
v -0.660300 3.287724 -0.046705
v -0.460737 3.213944 -0.877577
v -0.970056 3.299403 -0.046790
v -0.490407 3.299403 -0.894367
v -0.940386 3.213944 -0.030000
v -1.321112 2.613035 -1.122868
v -1.626894 2.698493 -0.651747
v -1.350782 2.698493 -1.139659
v -1.597224 2.613035 -0.634957
vn 0.4925 -0.0000 -0.8703
vn 0.8084 0.3705 0.4575
vn -0.4925 -0.0000 0.8703
vn -0.0515 -0.2097 -0.9764
vn -0.0000 -1.0000 -0.0000
vn 0.2942 0.9411 0.1665
vn -0.8703 -0.0000 -0.4925
vn 0.8703 -0.0000 0.4925
vn -0.8162 -0.3472 -0.4619
vn -0.8084 -0.3705 -0.4575
vn -0.8823 -0.2251 0.4135
vn 0.7809 -0.4415 0.4419
vn -0.7809 0.4415 -0.4419
vn -0.2304 0.9643 -0.1304
vn 0.2304 -0.9643 0.1304
vn 0.4159 0.3122 0.8541
vn 0.9462 0.3110 -0.0890
vn -0.2602 0.9543 -0.1472
vn 0.2602 -0.9543 0.1472
vn 0.0071 0.1952 0.9807
vn 0.8334 0.1871 -0.5201
vn -0.4948 0.8227 -0.2800
vn 0.4948 -0.8227 0.2800
vn -0.6395 -0.0716 0.7655
vn 0.3209 -0.0741 -0.9442
vt 0.125000 0.750000
vt 0.375000 1.000000
vt 0.375000 0.000000
vt 0.875000 0.750000
vt 0.625000 0.000000
vt 0.125000 0.500000
vt 0.375000 0.250000
vt 0.625000 0.250000
vt 0.875000 0.500000
vt 0.375000 0.750000
vt 0.625000 0.750000
vt 0.375000 0.500000
vt 0.625000 0.500000
vt 0.500000 1.000000
vt 0.500000 0.000000
vt 0.500000 0.250000
vt 0.500000 0.500000
vt 0.500000 0.750000
vt 0.614310 1.000000
vt 0.614310 0.000000
vt 0.614310 0.250000
vt 0.614310 0.500000
vt 0.614310 0.750000
vt 0.614310 0.000000
vt 0.614310 1.000000
vt 0.625000 0.000000
vt 0.625000 1.000000
vt 0.875000 0.750000
vt 0.625000 0.750000
vt 0.614310 0.750000
vt 0.614310 1.000000
vt 0.614310 0.000000
vt 0.875000 0.750000
vt 0.625000 0.000000
vt 0.625000 0.750000
vt 0.614310 0.750000
vt 0.614310 1.000000
vt 0.614310 0.000000
vt 0.625000 0.750000
vt 0.875000 0.750000
vt 0.625000 0.000000
vt 0.614310 0.750000
vt 0.614310 1.000000
vt 0.614310 0.000000
vt 0.625000 0.750000
vt 0.875000 0.750000
vt 0.625000 0.000000
vt 0.614310 0.750000
s 0
f 77/116/51 66/101/51 68/104/51 78/117/51
f 78/117/52 68/104/52 72/109/52 79/118/52
f 79/118/53 72/109/53 70/107/53 80/119/53
f 95/143/54 93/140/54 81/120/54 82/122/54
f 67/102/55 71/108/55 69/106/55 65/97/55
f 72/109/56 68/105/56 66/100/56 70/107/56
f 69/106/57 76/114/57 73/110/57 65/98/57
f 71/108/53 75/113/53 76/114/53 69/106/53
f 67/103/58 74/112/58 75/113/58 71/108/58
f 65/99/51 73/111/51 74/112/51 67/103/51
f 76/114/59 80/119/59 77/115/59 73/110/59
f 75/113/53 79/118/53 80/119/53 76/114/53
f 74/112/52 78/117/52 79/118/52 75/113/52
f 73/111/51 77/116/51 78/117/51 74/112/51
f 84/126/60 83/125/60 82/123/60 81/121/60
f 96/144/61 94/141/61 83/125/61 84/126/61
f 93/139/62 96/144/62 84/126/62 81/121/62
f 94/141/63 95/142/63 82/124/63 83/125/63
f 70/107/64 66/100/64 86/129/64 87/131/64
f 77/115/65 80/119/65 88/132/65 85/127/65
f 80/119/66 70/107/66 87/131/66 88/132/66
f 66/101/67 77/116/67 85/128/67 86/130/67
f 87/131/68 86/129/68 91/136/68 90/135/68
f 85/127/69 88/132/69 92/138/69 89/133/69
f 88/132/70 87/131/70 90/135/70 92/138/70
f 86/130/71 85/128/71 89/134/71 91/137/71
f 90/135/72 91/136/72 95/142/72 94/141/72
f 89/133/73 92/138/73 96/144/73 93/139/73
f 92/138/74 90/135/74 94/141/74 96/144/74
f 91/137/75 89/134/75 93/140/75 95/143/75
o plant.003
v -0.634368 0.485225 0.094155
v -1.016422 2.554591 0.207980
v -0.445654 0.485225 0.037932
v -0.827708 2.483858 0.151757
v -0.573837 0.485225 0.297328
v -0.955891 2.554591 0.411153
v -0.385123 0.485225 0.241105
v -0.767177 2.483858 0.354930
v -0.634368 1.484542 0.094155
v -0.445654 1.484542 0.037932
v -0.385123 1.484542 0.241105
v -0.573837 1.484542 0.297328
v -0.983750 2.469132 0.198246
v -0.795036 2.398399 0.142023
v -0.734505 2.398399 0.345196
v -0.923219 2.469132 0.401419
v -2.318951 1.464268 0.596042
v -2.351623 1.549726 0.605775
v -2.291092 1.549726 0.808948
v -2.258420 1.464268 0.799214
v -1.188942 2.429254 0.018174
v -1.221614 2.514713 0.027908
v -1.028204 2.514713 0.677088
v -0.995532 2.429254 0.667354
v -1.455792 2.355474 -0.052600
v -1.210395 2.440933 0.890476
v -1.488464 2.440933 -0.042866
v -1.177722 2.355474 0.880742
v -2.229153 1.754564 0.397206
v -2.101753 1.840023 0.944222
v -2.261825 1.840023 0.406940
v -2.069081 1.754564 0.934488
vn -0.2855 -0.0000 -0.9584
vn 0.8902 0.3705 -0.2652
vn 0.2855 -0.0000 0.9584
vn -0.7392 -0.2097 -0.6400
vn -0.0000 -1.0000 -0.0000
vn 0.3240 0.9411 -0.0965
vn -0.9584 -0.0000 0.2855
vn 0.9584 -0.0000 -0.2855
vn -0.8987 -0.3472 0.2678
vn -0.8902 -0.3705 0.2652
vn -0.3139 -0.2251 0.9224
vn 0.8599 -0.4415 -0.2562
vn -0.8599 0.4415 0.2562
vn -0.2538 0.9643 0.0756
vn 0.2538 -0.9643 -0.0756
vn 0.9038 0.3122 0.2926
vn 0.5920 0.3110 -0.7435
vn -0.2865 0.9543 0.0854
vn 0.2865 -0.9543 -0.0854
vn 0.7115 0.1952 0.6750
vn 0.2032 0.1871 -0.9611
vn -0.5448 0.8227 0.1623
vn 0.5448 -0.8227 -0.1623
vn 0.1081 -0.0716 0.9916
vn -0.4577 -0.0741 -0.8860
vt 0.125000 0.750000
vt 0.375000 1.000000
vt 0.375000 0.000000
vt 0.875000 0.750000
vt 0.625000 0.000000
vt 0.125000 0.500000
vt 0.375000 0.250000
vt 0.625000 0.250000
vt 0.875000 0.500000
vt 0.375000 0.750000
vt 0.625000 0.750000
vt 0.375000 0.500000
vt 0.625000 0.500000
vt 0.500000 1.000000
vt 0.500000 0.000000
vt 0.500000 0.250000
vt 0.500000 0.500000
vt 0.500000 0.750000
vt 0.614310 1.000000
vt 0.614310 0.000000
vt 0.614310 0.250000
vt 0.614310 0.500000
vt 0.614310 0.750000
vt 0.614310 0.000000
vt 0.614310 1.000000
vt 0.625000 0.000000
vt 0.625000 1.000000
vt 0.875000 0.750000
vt 0.625000 0.750000
vt 0.614310 0.750000
vt 0.614310 1.000000
vt 0.614310 0.000000
vt 0.875000 0.750000
vt 0.625000 0.000000
vt 0.625000 0.750000
vt 0.614310 0.750000
vt 0.614310 1.000000
vt 0.614310 0.000000
vt 0.625000 0.750000
vt 0.875000 0.750000
vt 0.625000 0.000000
vt 0.614310 0.750000
vt 0.614310 1.000000
vt 0.614310 0.000000
vt 0.625000 0.750000
vt 0.875000 0.750000
vt 0.625000 0.000000
vt 0.614310 0.750000
s 0
f 109/164/76 98/149/76 100/152/76 110/165/76
f 110/165/77 100/152/77 104/157/77 111/166/77
f 111/166/78 104/157/78 102/155/78 112/167/78
f 127/191/79 125/188/79 113/168/79 114/170/79
f 99/150/80 103/156/80 101/154/80 97/145/80
f 104/157/81 100/153/81 98/148/81 102/155/81
f 101/154/82 108/162/82 105/158/82 97/146/82
f 103/156/78 107/161/78 108/162/78 101/154/78
f 99/151/83 106/160/83 107/161/83 103/156/83
f 97/147/76 105/159/76 106/160/76 99/151/76
f 108/162/84 112/167/84 109/163/84 105/158/84
f 107/161/78 111/166/78 112/167/78 108/162/78
f 106/160/77 110/165/77 111/166/77 107/161/77
f 105/159/76 109/164/76 110/165/76 106/160/76
f 116/174/85 115/173/85 114/171/85 113/169/85
f 128/192/86 126/189/86 115/173/86 116/174/86
f 125/187/87 128/192/87 116/174/87 113/169/87
f 126/189/88 127/190/88 114/172/88 115/173/88
f 102/155/89 98/148/89 118/177/89 119/179/89
f 109/163/90 112/167/90 120/180/90 117/175/90
f 112/167/91 102/155/91 119/179/91 120/180/91
f 98/149/92 109/164/92 117/176/92 118/178/92
f 119/179/93 118/177/93 123/184/93 122/183/93
f 117/175/94 120/180/94 124/186/94 121/181/94
f 120/180/95 119/179/95 122/183/95 124/186/95
f 118/178/96 117/176/96 121/182/96 123/185/96
f 122/183/97 123/184/97 127/190/97 126/189/97
f 121/181/98 124/186/98 128/192/98 125/187/98
f 124/186/99 122/183/99 126/189/99 128/192/99
f 123/185/100 121/182/100 125/188/100 127/191/100
o plant.004
v 0.562101 0.972257 -0.277170
v 0.899753 3.041623 -0.489095
v 0.395319 0.972257 -0.172490
v 0.732971 2.970890 -0.384415
v 0.449401 0.972257 -0.456730
v 0.787053 3.041623 -0.668655
v 0.282619 0.972257 -0.352050
v 0.620271 2.970890 -0.563975
v 0.562101 1.971573 -0.277170
v 0.395319 1.971573 -0.172490
v 0.282619 1.971573 -0.352050
v 0.449401 1.971573 -0.456730
v 0.870878 2.956164 -0.470971
v 0.704096 2.885431 -0.366292
v 0.591396 2.885431 -0.545852
v 0.758178 2.956164 -0.650532
v 2.050904 1.951299 -1.211608
v 2.079779 2.036758 -1.229731
v 1.967079 2.036758 -1.409292
v 1.938204 1.951299 -1.391168
v 1.116779 2.916285 -0.352386
v 1.145654 3.001744 -0.370509
v 0.785553 3.001744 -0.944243
v 0.756678 2.916285 -0.926120
v 1.392836 2.842506 -0.355613
v 0.903986 2.927964 -1.198607
v 1.421711 2.927964 -0.373736
v 0.875111 2.842506 -1.180484
v 2.017598 2.241596 -0.995992
v 1.748443 2.327055 -1.488956
v 2.046473 2.327055 -1.014116
v 1.719567 2.241596 -1.470833
vn 0.5316 -0.0000 0.8470
vn -0.7867 0.3705 0.4938
vn -0.5316 -0.0000 -0.8470
vn 0.8835 -0.2097 0.4188
vn -0.0000 -1.0000 -0.0000
vn -0.2863 0.9411 0.1797
vn 0.8470 -0.0000 -0.5316
vn -0.8470 -0.0000 0.5316
vn 0.7943 -0.3472 -0.4985
vn 0.7867 -0.3705 -0.4938
vn 0.0556 -0.2251 -0.9728
vn -0.7600 -0.4415 0.4770
vn 0.7600 0.4415 -0.4770
vn 0.2243 0.9643 -0.1408
vn -0.2243 -0.9643 0.1408
vn -0.9492 0.3122 -0.0400
vn -0.3714 0.3110 0.8748
vn 0.2532 0.9543 -0.1589
vn -0.2532 -0.9543 0.1589
vn -0.8662 0.1952 -0.4599
vn 0.0615 0.1871 0.9804
vn 0.4815 0.8227 -0.3022
vn -0.4815 -0.8227 0.3022
vn -0.3695 -0.0716 -0.9265
vn 0.6782 -0.0741 0.7312
vt 0.125000 0.750000
vt 0.375000 1.000000
vt 0.375000 0.000000
vt 0.875000 0.750000
vt 0.625000 0.000000
vt 0.125000 0.500000
vt 0.375000 0.250000
vt 0.625000 0.250000
vt 0.875000 0.500000
vt 0.375000 0.750000
vt 0.625000 0.750000
vt 0.375000 0.500000
vt 0.625000 0.500000
vt 0.500000 1.000000
vt 0.500000 0.000000
vt 0.500000 0.250000
vt 0.500000 0.500000
vt 0.500000 0.750000
vt 0.614310 1.000000
vt 0.614310 0.000000
vt 0.614310 0.250000
vt 0.614310 0.500000
vt 0.614310 0.750000
vt 0.614310 0.000000
vt 0.614310 1.000000
vt 0.625000 0.000000
vt 0.625000 1.000000
vt 0.875000 0.750000
vt 0.625000 0.750000
vt 0.614310 0.750000
vt 0.614310 1.000000
vt 0.614310 0.000000
vt 0.875000 0.750000
vt 0.625000 0.000000
vt 0.625000 0.750000
vt 0.614310 0.750000
vt 0.614310 1.000000
vt 0.614310 0.000000
vt 0.625000 0.750000
vt 0.875000 0.750000
vt 0.625000 0.000000
vt 0.614310 0.750000
vt 0.614310 1.000000
vt 0.614310 0.000000
vt 0.625000 0.750000
vt 0.875000 0.750000
vt 0.625000 0.000000
vt 0.614310 0.750000
s 0
f 141/212/101 130/197/101 132/200/101 142/213/101
f 142/213/102 132/200/102 136/205/102 143/214/102
f 143/214/103 136/205/103 134/203/103 144/215/103
f 159/239/104 157/236/104 145/216/104 146/218/104
f 131/198/105 135/204/105 133/202/105 129/193/105
f 136/205/106 132/201/106 130/196/106 134/203/106
f 133/202/107 140/210/107 137/206/107 129/194/107
f 135/204/103 139/209/103 140/210/103 133/202/103
f 131/199/108 138/208/108 139/209/108 135/204/108
f 129/195/101 137/207/101 138/208/101 131/199/101
f 140/210/109 144/215/109 141/211/109 137/206/109
f 139/209/103 143/214/103 144/215/103 140/210/103
f 138/208/102 142/213/102 143/214/102 139/209/102
f 137/207/101 141/212/101 142/213/101 138/208/101
f 148/222/110 147/221/110 146/219/110 145/217/110
f 160/240/111 158/237/111 147/221/111 148/222/111
f 157/235/112 160/240/112 148/222/112 145/217/112
f 158/237/113 159/238/113 146/220/113 147/221/113
f 134/203/114 130/196/114 150/225/114 151/227/114
f 141/211/115 144/215/115 152/228/115 149/223/115
f 144/215/116 134/203/116 151/227/116 152/228/116
f 130/197/117 141/212/117 149/224/117 150/226/117
f 151/227/118 150/225/118 155/232/118 154/231/118
f 149/223/119 152/228/119 156/234/119 153/229/119
f 152/228/120 151/227/120 154/231/120 156/234/120
f 150/226/121 149/224/121 153/230/121 155/233/121
f 154/231/122 155/232/122 159/238/122 158/237/122
f 153/229/123 156/234/123 160/240/123 157/235/123
f 156/234/124 154/231/124 158/237/124 160/240/124
f 155/233/125 153/230/125 157/236/125 159/239/125
