# Blender 3.3.1
# www.blender.org
mtllib safedoor.mtl
o door
v 0.678567 -1.000000 -1.886338
v 0.678567 1.000000 1.886338
v 0.678567 -1.000000 1.886338
v 0.678567 1.000000 -1.886338
v 0.961748 0.762373 -1.648711
v 0.961748 -0.762373 -1.648711
v 0.961748 0.762373 1.648711
v 0.961748 -0.762373 1.648711
v 0.961748 1.000000 -1.886338
v 0.961748 -1.000000 -1.886338
v 0.961748 1.000000 1.886338
v 0.961748 -1.000000 1.886338
v 0.961748 -0.762373 1.479482
v 0.961748 0.762373 0.000000
v 0.961748 -0.762373 0.000000
v 0.961748 0.762373 1.479482
v 1.217172 -0.762373 1.648711
v 1.217172 -0.762373 1.479482
v 1.217172 0.762373 1.479482
v 1.217172 0.762373 1.648711
v 1.011737 -0.701421 -0.060953
v 1.011737 -0.701421 -1.587759
v 1.011737 0.701421 -1.587759
v 1.011737 0.701421 -0.060953
v 1.011737 -0.762373 0.000000
v 1.011737 -0.762373 -1.648711
v 1.011737 0.762373 -1.648711
v 1.011737 0.762373 0.000000
v 1.011737 0.208736 -1.587759
v 1.011737 0.208736 -0.060953
v 1.055629 0.208736 -1.587759
v 1.055629 -0.701421 -1.587759
v 1.055629 0.208736 -0.060953
v 1.055629 -0.701421 -0.060953
v 0.976926 0.701421 -1.587759
v 0.976926 0.208736 -1.587759
v 0.976926 0.701421 -0.060953
v 0.976926 0.208736 -0.060953
vn -0.0000 -1.0000 -0.0000
vn -0.0000 -0.0000 -1.0000
vn -0.0000 -0.0000 1.0000
vn -0.0000 1.0000 -0.0000
vn -1.0000 -0.0000 -0.0000
vn 1.0000 -0.0000 -0.0000
vt 0.737818 0.281626
vt 0.894521 0.563253
vt 0.737818 0.000000
vt 0.790052 0.932162
vt 0.957935 0.695887
vt 0.368909 0.695888
vt 0.737818 0.977514
vt 0.790052 0.563253
vt 0.737818 0.695888
vt 0.894521 0.932162
vt 0.957936 0.000000
vt 0.368909 0.000000
vt 0.043831 0.652056
vt 0.903741 0.563253
vt 0.904668 0.562873
vt 0.325078 0.652056
vt 0.957935 0.000000
vt 0.904668 0.281626
vt 0.043831 0.043831
vt 0.406690 0.743002
vt 0.328361 0.977134
vt 0.325078 0.043831
vt 0.437905 0.695888
vt 0.328361 0.695887
vt 0.842287 0.932162
vt 0.905701 0.000000
vt 0.000000 0.695888
vt 0.790053 0.281626
vt 0.842287 0.563253
vt 0.368909 0.695888
vt 0.842286 0.932162
vt 0.905701 0.695887
vt 0.000000 0.000000
vt 0.790052 0.977514
vt 0.842286 0.563253
vt 0.368909 0.000000
vt 0.325078 0.075047
vt 0.469121 0.695888
vt 0.328361 0.695888
vt 0.043831 0.347944
vt 0.957935 0.585359
vt 0.903741 0.867365
vt 0.325078 0.347944
vt 0.957935 0.304112
vt 0.043831 0.075047
vt 0.328361 0.977134
vt 0.437905 0.743002
vt 0.437905 0.743002
vt 0.375475 0.695887
vt 0.469121 0.743002
vt 0.406690 0.695888
vt 0.281247 0.695888
vt 0.406690 0.977134
vt 0.281247 0.977134
vt 0.437905 0.695888
vt 0.406690 0.695888
vt 0.375475 0.977134
vt 0.270004 0.707130
vt 0.469121 0.695888
vt 0.957935 0.866985
vt 0.270004 0.988757
vt 0.485313 0.695888
vt 0.957935 0.585359
vt 0.011243 0.988757
vt 0.498155 0.786765
vt 0.972452 0.585359
vt 0.011243 0.707130
vt 0.485313 0.786765
vt 0.972452 0.866985
vt 0.967156 0.304112
vt 0.281247 0.695888
vt 0.967156 0.000000
vt 0.895447 0.281626
vt 0.281247 1.000000
vt 0.894521 0.563253
vt 0.895447 0.562873
vt 0.000000 1.000000
vt 0.967156 0.585359
vt 0.894521 0.867365
vt 0.000000 0.695888
vt 0.102121 0.988757
vt 0.485313 0.863770
vt 0.498155 0.695888
vt 0.889027 0.281626
vt 0.102121 0.707130
vt 0.485313 0.695888
vt 0.469121 0.863770
vt 0.889027 0.563253
vt 0.477217 0.863770
vt 0.737818 0.281626
vt 0.880930 0.281626
vt 0.477217 0.695888
vt 0.905701 0.281626
vt 0.966032 0.585359
vt 0.737818 0.000000
vt 0.477217 0.863770
vt 0.880930 0.563253
vt 0.905701 0.000000
vt 0.477217 0.695888
vt 0.966032 0.866985
vt 0.790053 0.563253
vt 0.491734 0.786765
vt 0.966031 0.585359
vt 0.880930 0.563253
vt 0.491734 0.695888
vt 0.895448 0.281626
vt 0.491734 0.786765
vt 0.790053 0.281626
vt 0.966031 0.866985
vt 0.491734 0.695888
vt 0.880930 0.281626
vt 0.895447 0.563253
s 0
usemtl Material
f 1/1/1 10/28/1 12/34/1 3/7/1
f 1/2/2 4/10/2 9/25/2 10/29/2
f 12/35/3 11/31/3 2/4/3 3/8/3
f 9/26/4 4/11/4 2/5/4 11/32/4
f 1/3/5 3/9/5 2/6/5 4/12/5
f 15/43/6 14/40/6 16/45/6 13/37/6
f 5/13/6 6/16/6 10/30/6 9/27/6
f 8/22/6 7/19/6 11/33/6 12/36/6
f 7/19/6 16/45/6 14/40/6 5/13/6 9/27/6 11/33/6
f 6/16/6 15/43/6 13/37/6 8/22/6 12/36/6 10/30/6
f 8/23/1 13/38/1 18/50/1 17/48/1
f 18/51/6 19/53/6 20/57/6 17/49/6
f 13/39/2 16/46/2 19/54/2 18/52/2
f 16/47/4 7/20/4 20/56/4 19/55/4
f 7/21/3 8/24/3 17/49/3 20/57/3
f 15/44/1 6/17/1 26/72/1 25/70/1
f 14/41/3 15/44/3 25/70/3 28/78/3
f 5/14/4 14/42/4 28/79/4 27/75/4
f 6/18/2 5/15/2 27/76/2 26/73/2
f 22/61/6 21/58/6 25/71/6 26/74/6
f 23/64/6 29/81/6 22/61/6 26/74/6 27/77/6
f 24/67/6 23/64/6 27/77/6 28/80/6
f 21/58/6 30/85/6 24/67/6 28/80/6 25/71/6
f 22/62/2 29/82/2 31/89/2 32/92/2
f 24/68/2 30/86/2 38/110/2 37/107/2
f 33/95/6 34/98/6 32/93/6 31/90/6
f 30/87/3 21/59/3 34/99/3 33/96/3
f 29/84/4 30/88/4 33/97/4 31/91/4
f 21/60/1 22/63/1 32/94/1 34/100/1
f 37/108/6 38/111/6 36/104/6 35/101/6
f 29/83/3 23/65/3 35/102/3 36/105/3
f 30/88/4 29/84/4 36/106/4 38/112/4
f 23/66/1 24/69/1 37/109/1 35/103/1
